<?xml version="1.0" standalone="no"?><!DOCTYPE svg PUBLIC "-//W3C//DTD SVG 1.1//EN" "http://www.w3.org/Graphics/SVG/1.1/DTD/svg11.dtd"><svg t="1574654426077" class="icon" viewBox="0 0 1024 1024" version="1.1" xmlns="http://www.w3.org/2000/svg" p-id="1910" xmlns:xlink="http://www.w3.org/1999/xlink" width="200" height="200"><defs><style type="text/css"></style></defs><path d="M869.701818 709.818182H337.687273A82.850909 82.850909 0 0 1 256 635.578182L218.996364 296.727273a83.549091 83.549091 0 0 1 20.945454-65.163637 81.92 81.92 0 0 1 60.974546-27.229091H907.636364A82.385455 82.385455 0 0 1 967.68 232.727273a84.247273 84.247273 0 0 1 20.945455 65.163636l-37.003637 337.687273a82.618182 82.618182 0 0 1-81.92 74.24zM300.916364 274.152727a12.101818 12.101818 0 0 0-9.076364 4.189091 13.730909 13.730909 0 0 0-3.490909 10.938182L325.818182 628.363636a12.8 12.8 0 0 0 12.334545 11.869091h531.549091a12.8 12.8 0 0 0 12.567273-11.869091l37.003636-339.083636a14.661818 14.661818 0 0 0-3.490909-10.938182 12.101818 12.101818 0 0 0-9.076363-4.189091z" p-id="1911" fill="#ffffff"></path><path d="M271.592727 491.985455a34.909091 34.909091 0 0 1-34.676363-30.72L195.258182 116.363636a13.032727 13.032727 0 0 0-12.334546-10.938181H69.818182a34.909091 34.909091 0 0 1 0-69.818182h113.105454a82.850909 82.850909 0 0 1 81.454546 71.68l41.890909 346.298182a34.909091 34.909091 0 0 1-30.487273 38.865454zM404.247273 791.272727a46.545455 46.545455 0 1 1-46.545455 46.545455 46.545455 46.545455 0 0 1 46.545455-46.545455m0-69.818182a116.363636 116.363636 0 1 0 116.363636 116.363637 116.363636 116.363636 0 0 0-116.363636-116.363637zM799.883636 791.272727a46.545455 46.545455 0 1 1-46.545454 46.545455 46.545455 46.545455 0 0 1 46.545454-46.545455m0-69.818182a116.363636 116.363636 0 1 0 116.363637 116.363637 116.363636 116.363636 0 0 0-116.363637-116.363637z" p-id="1912" fill="#ffffff"></path></svg>