<?xml version="1.0" standalone="no"?><!DOCTYPE svg PUBLIC "-//W3C//DTD SVG 1.1//EN" "http://www.w3.org/Graphics/SVG/1.1/DTD/svg11.dtd"><svg t="1574642400688" class="icon" viewBox="0 0 1024 1024" version="1.1" xmlns="http://www.w3.org/2000/svg" p-id="12015" xmlns:xlink="http://www.w3.org/1999/xlink" width="200" height="200"><defs><style type="text/css"></style></defs><path d="M512.070982 977.943273L113.734982 638.673455l-26.461091-26.461091a295.982545 295.982545 0 0 1-87.296-210.711273c0-79.592727 31.022545-154.414545 87.296-210.711273a296.029091 296.029091 0 0 1 210.711273-87.272727c79.592727 0 154.437818 30.999273 210.711272 87.272727l3.351273 3.351273 3.351273-3.351273c56.273455-56.296727 131.118545-87.296 210.711273-87.296s154.437818 30.999273 210.711272 87.272727c116.177455 116.177455 116.177455 305.221818 0 421.422546l-28.392727 28.229818-396.357818 337.524364zM159.046982 591.522909l353.024 300.590546 353.000727-300.590546 25.553455-25.530182c90.670545-90.693818 90.670545-238.266182 0-328.96a231.098182 231.098182 0 0 0-164.491637-68.142545 231.098182 231.098182 0 0 0-164.491636 68.142545l-49.547636 49.570909-49.57091-49.570909a231.051636 231.051636 0 0 0-164.491636-68.142545 231.168 231.168 0 0 0-164.514909 68.142545c-43.938909 43.938909-68.142545 102.330182-68.142545 164.468364s24.203636 120.552727 68.142545 164.491636l25.530182 25.530182z" p-id="12016"></path></svg>