<?xml version="1.0" standalone="no"?><!DOCTYPE svg PUBLIC "-//W3C//DTD SVG 1.1//EN" "http://www.w3.org/Graphics/SVG/1.1/DTD/svg11.dtd"><svg t="1574654456749" class="icon" viewBox="0 0 1027 1024" version="1.1" xmlns="http://www.w3.org/2000/svg" p-id="20105" xmlns:xlink="http://www.w3.org/1999/xlink" width="200.5859375" height="200"><defs><style type="text/css"></style></defs><path d="M860.16 1024c-10.24 0-20.48-5.12-25.6-15.36l-133.12-153.6c-5.12-10.24-5.12-20.48 0-30.72 5.12-10.24 15.36-15.36 30.72-15.36h61.44V665.6c0-15.36 15.36-30.72 30.72-30.72h76.8c15.36 0 30.72 15.36 30.72 30.72v143.36h61.44c10.24 0 20.48 5.12 30.72 15.36 5.12 10.24 5.12 25.6 0 35.84l-133.12 148.48c-10.24 10.24-20.48 15.36-30.72 15.36zM71.68 71.68h732.16v363.52h71.68V71.68c0-40.96-30.72-71.68-71.68-71.68H71.68C30.72 0 0 30.72 0 71.68v732.16c0 40.96 30.72 71.68 71.68 71.68H512v-71.68H71.68V71.68z m0 0" fill="#ffffff" p-id="20106"></path><path d="M220.16 209.92h440.32v71.68H220.16zM220.16 409.6h440.32v71.68H220.16z" fill="#ffffff" p-id="20107"></path></svg>