<?xml version="1.0" standalone="no"?><!DOCTYPE svg PUBLIC "-//W3C//DTD SVG 1.1//EN" "http://www.w3.org/Graphics/SVG/1.1/DTD/svg11.dtd"><svg t="1574642594367" class="icon" viewBox="0 0 1024 1024" version="1.1" xmlns="http://www.w3.org/2000/svg" p-id="13631" xmlns:xlink="http://www.w3.org/1999/xlink" width="200" height="200"><defs><style type="text/css"></style></defs><path d="M989.44 400a51.84 51.84 0 0 0-41.92-35.2l-268.8-39.04-120.32-243.84a51.84 51.84 0 0 0-92.8 0l-120.32 243.84-268.8 39.04a51.84 51.84 0 0 0-28.8 88.32l194.56 189.76-45.76 267.52a51.84 51.84 0 0 0 75.2 54.72l240.64-128 240.64 128a51.84 51.84 0 0 0 75.2-54.72l-46.08-267.84 194.56-189.76a51.84 51.84 0 0 0 12.8-52.8z m-345.28 198.08l32 182.08L512 694.08l-163.52 86.08 32-182.08-132.16-128 182.72-26.56L512 276.8l81.6 165.44 182.72 26.56z" fill="#f4ea2a" p-id="13632"></path></svg>